<svg viewBox="0 0 24 24" fill="none" xmlns="http://www.w3.org/2000/svg">
<path d="M14 19C17.771 19 19.657 19 20.828 17.828C22 16.657 22 14.771 22 11C22 7.229 22 5.343 20.828 4.172C19.657 3 17.771 3 14 3H10C6.229 3 4.343 3 3.172 4.172C2 5.343 2 7.229 2 11C2 14.771 2 16.657 3.172 17.828C3.825 18.482 4.7 18.771 6 18.898" stroke="#2B3C41" stroke-width="2" stroke-linecap="round" stroke-linejoin="round"/>
<path d="M15.207 6.79281C15.1139 6.69958 15.0032 6.62567 14.8815 6.57534C14.7597 6.525 14.6292 6.49924 14.4974 6.49951C14.3656 6.49979 14.2352 6.52611 14.1136 6.57696C13.9921 6.62781 13.8817 6.70218 13.789 6.79581L9.23901 11.3928C8.96354 11.671 8.77579 12.0239 8.69901 12.4078L8.51901 13.3038C8.48665 13.4653 8.49467 13.6323 8.54236 13.7899C8.59006 13.9475 8.67595 14.091 8.79241 14.2074C8.90886 14.3239 9.05228 14.4098 9.20991 14.4574C9.36755 14.5051 9.53452 14.5132 9.69601 14.4808L10.592 14.3008C10.9759 14.224 11.3288 14.0363 11.607 13.7608L16.204 9.21081C16.2976 9.11808 16.372 9.00776 16.4229 8.88619C16.4737 8.76462 16.5 8.6342 16.5003 8.50243C16.5006 8.37066 16.4748 8.24013 16.4245 8.11835C16.3741 7.99656 16.3002 7.88593 16.207 7.79281L15.207 6.79281V6.79281Z" stroke="#2B3C41" stroke-width="2" stroke-linecap="round" stroke-linejoin="round"/>
<path d="M12.5 9.5L13.5 10.5" stroke="#2B3C41" stroke-width="2"/>
<path d="M14 19C12.764 19 11.402 19.5 10.159 20.145C8.161 21.182 7.162 21.701 6.67 21.37C6.178 21.04 6.271 20.015 6.458 17.966L6.5 17.5" stroke="#2B3C41" stroke-width="2" stroke-linecap="round"/>
</svg>
